<mxfile host="" modified="2020-05-22T20:59:05.788Z" agent="5.0 (X11; Linux x86_64) AppleWebKit/537.36 (KHTML, like Gecko) Code/1.45.0 Chrome/78.0.3904.130 Electron/7.2.4 Safari/537.36" etag="zUeXL9Tt7OueM90BG6PX" version="13.1.3">
    <diagram id="6hGFLwfOUW9BJ-s0fimq" name="Page-1">
        <mxGraphModel dx="1451" dy="427" grid="1" gridSize="10" guides="1" tooltips="1" connect="1" arrows="1" fold="1" page="1" pageScale="1" pageWidth="827" pageHeight="1169" math="0" shadow="0">
            <root>
                <mxCell id="0"/>
                <mxCell id="1" parent="0"/>
                <mxCell id="2" value="Admission Control?" style="rounded=0;whiteSpace=wrap;html=1;" vertex="1" parent="1">
                    <mxGeometry x="-10" y="320" width="120" height="60" as="geometry"/>
                </mxCell>
                <mxCell id="3" value="&lt;meta http-equiv=&quot;content-type&quot; content=&quot;text/html; charset=utf-8&quot;&gt;&lt;img id=&quot;mainSlide_013-119-204&quot; onload=&quot;Web.UI.Control.removeCss($('mainSlide13-119-204'),'loading');&quot; title=&quot;ASUS Prime Z390-A/H10 Motherboard Bundled Intel Optane Memory H10 with Solid State Storage (32GB + 512GB) LGA1151 (Intel 8th and 9th Gen) ATX DDR4 DP HDMI M.2 USB 3.1 Gen2 Gigabit LAN&quot; alt=&quot;ASUS Prime Z390-A/H10 Motherboard Bundled Intel Optane Memory H10 with Solid State Storage (32GB + 512GB) LGA1151 (Intel 8th and 9th Gen) ATX DDR4 DP HDMI M.2 USB 3.1 Gen2 Gigabit LAN&quot; src=&quot;https://c1.neweggimages.com/NeweggImage/ProductImage/13-119-204-V01.jpg&quot;&gt;" style="text;whiteSpace=wrap;html=1;" vertex="1" parent="1">
                    <mxGeometry x="-160" y="10" width="170" height="140" as="geometry"/>
                </mxCell>
                <mxCell id="5" value="CRI" style="rounded=0;whiteSpace=wrap;html=1;" vertex="1" parent="1">
                    <mxGeometry x="-80" y="40" width="40" height="30" as="geometry"/>
                </mxCell>
                <mxCell id="6" value="CSI" style="rounded=0;whiteSpace=wrap;html=1;" vertex="1" parent="1">
                    <mxGeometry x="-180" y="110" width="90" height="40" as="geometry"/>
                </mxCell>
                <mxCell id="7" value="CNI" style="rounded=0;whiteSpace=wrap;html=1;" vertex="1" parent="1">
                    <mxGeometry x="-30" y="90" width="90" height="40" as="geometry"/>
                </mxCell>
                <mxCell id="8" value="&lt;meta http-equiv=&quot;content-type&quot; content=&quot;text/html; charset=utf-8&quot;&gt;&lt;img src=&quot;https://www.digitalstorm.com/img/products/lumos/2020-hero-image-1.jpg&quot;&gt;" style="text;whiteSpace=wrap;html=1;" vertex="1" parent="1">
                    <mxGeometry x="-140" y="160" width="150" height="120" as="geometry"/>
                </mxCell>
                <mxCell id="9" value="API Server" style="rounded=0;whiteSpace=wrap;html=1;align=left;verticalAlign=top;" vertex="1" parent="1">
                    <mxGeometry x="320" y="310" width="410" height="170" as="geometry"/>
                </mxCell>
                <mxCell id="14" style="edgeStyle=orthogonalEdgeStyle;rounded=0;orthogonalLoop=1;jettySize=auto;html=1;entryX=0;entryY=0.5;entryDx=0;entryDy=0;" edge="1" parent="1" source="10" target="11">
                    <mxGeometry relative="1" as="geometry"/>
                </mxCell>
                <mxCell id="10" value="AUTHN" style="rounded=0;whiteSpace=wrap;html=1;align=left;" vertex="1" parent="1">
                    <mxGeometry x="340" y="370" width="80" height="60" as="geometry"/>
                </mxCell>
                <mxCell id="16" style="edgeStyle=orthogonalEdgeStyle;rounded=0;orthogonalLoop=1;jettySize=auto;html=1;entryX=0;entryY=0.5;entryDx=0;entryDy=0;" edge="1" parent="1" source="11" target="15">
                    <mxGeometry relative="1" as="geometry"/>
                </mxCell>
                <mxCell id="11" value="RBAC" style="rounded=0;whiteSpace=wrap;html=1;align=left;" vertex="1" parent="1">
                    <mxGeometry x="460" y="370" width="70" height="60" as="geometry"/>
                </mxCell>
                <mxCell id="13" style="edgeStyle=orthogonalEdgeStyle;rounded=0;orthogonalLoop=1;jettySize=auto;html=1;" edge="1" parent="1" source="12" target="10">
                    <mxGeometry relative="1" as="geometry"/>
                </mxCell>
                <mxCell id="12" value="Actor" style="shape=umlActor;verticalLabelPosition=bottom;labelBackgroundColor=#ffffff;verticalAlign=top;html=1;outlineConnect=0;align=left;" vertex="1" parent="1">
                    <mxGeometry x="220" y="365" width="30" height="60" as="geometry"/>
                </mxCell>
                <mxCell id="18" style="edgeStyle=orthogonalEdgeStyle;rounded=0;orthogonalLoop=1;jettySize=auto;html=1;entryX=0.5;entryY=0;entryDx=0;entryDy=0;" edge="1" parent="1" source="15" target="17">
                    <mxGeometry relative="1" as="geometry"/>
                </mxCell>
                <mxCell id="15" value="dynamic admission control" style="rounded=0;whiteSpace=wrap;html=1;align=left;" vertex="1" parent="1">
                    <mxGeometry x="570" y="370" width="120" height="60" as="geometry"/>
                </mxCell>
                <mxCell id="17" value="gatekeeper" style="rounded=1;whiteSpace=wrap;html=1;align=left;" vertex="1" parent="1">
                    <mxGeometry x="570" y="530" width="120" height="60" as="geometry"/>
                </mxCell>
            </root>
        </mxGraphModel>
    </diagram>
</mxfile>